<svg width="1080" height="1080" viewBox="0 0 1080 1080" fill="none" xmlns="http://www.w3.org/2000/svg">
<path d="M584.25 332.688V398.312H748.312V748.312H332.688V398.312H496.75V332.688H584.25ZM420.188 529.562V617.062H507.688V529.562H420.188ZM573.312 529.562V617.062H660.812V529.562H573.312Z" fill="black"/>
<path d="M198 681L198 882L400 882L400 1030L50 1030L50 681L198 681Z" fill="black"/>
<path d="M680 882L881 882L881 680L1029 680L1029 1030L680 1030L680 882Z" fill="black"/>
<path d="M881 501L881 199L198 199L198 501L50 501L50 51L1029 51L1029 501L881 501Z" fill="black"/>
</svg>
